<mxfile host="app.diagrams.net" modified="2024-02-14T22:23:01.100Z" agent="Mozilla/5.0 (Windows NT 10.0; Win64; x64) AppleWebKit/537.36 (KHTML, like Gecko) Chrome/121.0.0.0 Safari/537.36" etag="OLQ4-E4YnO01TK3ue0am" version="23.1.2" type="github" pages="4">
  <diagram name="Global use case" id="HMoWm8q01mGYL6mocgkL">
    <mxGraphModel dx="1434" dy="1907" grid="0" gridSize="10" guides="1" tooltips="1" connect="1" arrows="1" fold="1" page="1" pageScale="1" pageWidth="827" pageHeight="1169" math="0" shadow="0">
      <root>
        <mxCell id="0" />
        <mxCell id="1" parent="0" />
        <mxCell id="uwcOLz1gDEWIKycSYIdj-1" value="User" style="shape=umlActor;verticalLabelPosition=bottom;verticalAlign=top;html=1;outlineConnect=0;" parent="1" vertex="1">
          <mxGeometry x="67" y="96" width="44" height="88" as="geometry" />
        </mxCell>
        <mxCell id="uwcOLz1gDEWIKycSYIdj-3" value="Admin" style="shape=umlActor;verticalLabelPosition=bottom;verticalAlign=top;html=1;outlineConnect=0;" parent="1" vertex="1">
          <mxGeometry x="79" y="417" width="44" height="88" as="geometry" />
        </mxCell>
        <mxCell id="uwcOLz1gDEWIKycSYIdj-11" value="" style="rounded=0;whiteSpace=wrap;html=1;" parent="1" vertex="1">
          <mxGeometry x="161" y="-39" width="609" height="659" as="geometry" />
        </mxCell>
        <mxCell id="uwcOLz1gDEWIKycSYIdj-5" value="Send email from work item&#39;s time log" style="ellipse;whiteSpace=wrap;html=1;" parent="1" vertex="1">
          <mxGeometry x="350" y="22" width="195" height="80" as="geometry" />
        </mxCell>
        <mxCell id="uwcOLz1gDEWIKycSYIdj-12" value="Consulter dashboard" style="ellipse;whiteSpace=wrap;html=1;" parent="1" vertex="1">
          <mxGeometry x="293" y="326" width="184.75" height="80" as="geometry" />
        </mxCell>
        <mxCell id="uwcOLz1gDEWIKycSYIdj-13" value="Manage audit log" style="ellipse;whiteSpace=wrap;html=1;" parent="1" vertex="1">
          <mxGeometry x="300" y="461" width="184.75" height="80" as="geometry" />
        </mxCell>
        <mxCell id="uwcOLz1gDEWIKycSYIdj-17" value="&lt;b&gt;&lt;font style=&quot;font-size: 26px;&quot;&gt;Time tracking (AION)&lt;/font&gt;&lt;/b&gt;" style="text;html=1;strokeColor=none;fillColor=none;align=center;verticalAlign=middle;whiteSpace=wrap;rounded=0;" parent="1" vertex="1">
          <mxGeometry x="289.5" y="-73" width="332" height="30" as="geometry" />
        </mxCell>
        <mxCell id="uwcOLz1gDEWIKycSYIdj-20" value="" style="endArrow=none;html=1;rounded=0;exitX=0.5;exitY=0.5;exitDx=0;exitDy=0;exitPerimeter=0;entryX=0;entryY=0.5;entryDx=0;entryDy=0;" parent="1" source="uwcOLz1gDEWIKycSYIdj-1" target="uwcOLz1gDEWIKycSYIdj-5" edge="1">
          <mxGeometry width="50" height="50" relative="1" as="geometry">
            <mxPoint x="416" y="91" as="sourcePoint" />
            <mxPoint x="466" y="41" as="targetPoint" />
          </mxGeometry>
        </mxCell>
        <mxCell id="uwcOLz1gDEWIKycSYIdj-24" value="" style="endArrow=none;html=1;rounded=0;exitX=0.5;exitY=0.5;exitDx=0;exitDy=0;exitPerimeter=0;entryX=0;entryY=0.5;entryDx=0;entryDy=0;" parent="1" source="uwcOLz1gDEWIKycSYIdj-3" target="uwcOLz1gDEWIKycSYIdj-12" edge="1">
          <mxGeometry width="50" height="50" relative="1" as="geometry">
            <mxPoint x="420" y="414" as="sourcePoint" />
            <mxPoint x="470" y="364" as="targetPoint" />
          </mxGeometry>
        </mxCell>
        <mxCell id="uwcOLz1gDEWIKycSYIdj-25" value="" style="endArrow=none;html=1;rounded=0;exitX=0.5;exitY=0.5;exitDx=0;exitDy=0;exitPerimeter=0;entryX=0;entryY=0.5;entryDx=0;entryDy=0;" parent="1" source="uwcOLz1gDEWIKycSYIdj-3" target="uwcOLz1gDEWIKycSYIdj-13" edge="1">
          <mxGeometry width="50" height="50" relative="1" as="geometry">
            <mxPoint x="420" y="414" as="sourcePoint" />
            <mxPoint x="470" y="364" as="targetPoint" />
          </mxGeometry>
        </mxCell>
        <mxCell id="uwcOLz1gDEWIKycSYIdj-31" value="" style="whiteSpace=wrap;html=1;aspect=fixed;" parent="1" vertex="1">
          <mxGeometry x="566" y="436" width="165" height="165" as="geometry" />
        </mxCell>
        <mxCell id="uwcOLz1gDEWIKycSYIdj-32" value="&lt;font style=&quot;font-size: 13px;&quot;&gt;toutes les cas d&#39;utilisation nécessitent d&#39;appartenir àl&#39;organisation de projet comme condition prealable pour l&#39;execution&lt;/font&gt;" style="text;html=1;strokeColor=none;fillColor=none;align=center;verticalAlign=middle;whiteSpace=wrap;rounded=0;" parent="1" vertex="1">
          <mxGeometry x="566" y="457" width="167" height="144" as="geometry" />
        </mxCell>
        <mxCell id="kZA4ZHWFA9T4Elh8818U-1" value="Manage time logs" style="ellipse;whiteSpace=wrap;html=1;" parent="1" vertex="1">
          <mxGeometry x="350" y="152" width="195" height="80" as="geometry" />
        </mxCell>
        <mxCell id="kZA4ZHWFA9T4Elh8818U-5" value="" style="endArrow=none;html=1;rounded=0;exitX=0;exitY=0.5;exitDx=0;exitDy=0;entryX=0.5;entryY=0.5;entryDx=0;entryDy=0;entryPerimeter=0;" parent="1" source="kZA4ZHWFA9T4Elh8818U-1" target="uwcOLz1gDEWIKycSYIdj-1" edge="1">
          <mxGeometry width="50" height="50" relative="1" as="geometry">
            <mxPoint x="606" y="204" as="sourcePoint" />
            <mxPoint x="656" y="154" as="targetPoint" />
          </mxGeometry>
        </mxCell>
      </root>
    </mxGraphModel>
  </diagram>
  <diagram id="4BNHJ1mr-sLuKrSLhk_P" name="Manage time logs use cases">
    <mxGraphModel dx="1434" dy="1907" grid="0" gridSize="10" guides="1" tooltips="1" connect="1" arrows="1" fold="1" page="1" pageScale="1" pageWidth="827" pageHeight="1169" math="0" shadow="0">
      <root>
        <mxCell id="0" />
        <mxCell id="1" parent="0" />
        <mxCell id="1eYsrxTv3W_-VM1bbza0-1" value="&lt;font style=&quot;font-size: 14px;&quot;&gt;consulter la liste des tickets&lt;/font&gt;" style="ellipse;whiteSpace=wrap;html=1;" parent="1" vertex="1">
          <mxGeometry x="580" y="-780" width="195" height="80" as="geometry" />
        </mxCell>
        <mxCell id="1eYsrxTv3W_-VM1bbza0-2" value="ajout imputation à un ticket&lt;span style=&quot;white-space: pre;&quot;&gt;&#x9;&lt;/span&gt;" style="ellipse;whiteSpace=wrap;html=1;" parent="1" vertex="1">
          <mxGeometry x="20" y="-1040" width="195" height="80" as="geometry" />
        </mxCell>
        <mxCell id="1eYsrxTv3W_-VM1bbza0-3" value="mettre a jour imputation d&#39;une ticket" style="ellipse;whiteSpace=wrap;html=1;" parent="1" vertex="1">
          <mxGeometry x="70" y="-780" width="217" height="80" as="geometry" />
        </mxCell>
        <mxCell id="1eYsrxTv3W_-VM1bbza0-4" value="supprimer imputation(soft del)" style="ellipse;whiteSpace=wrap;html=1;" parent="1" vertex="1">
          <mxGeometry x="570" y="-1050" width="194" height="80" as="geometry" />
        </mxCell>
        <mxCell id="4jdrBC15Ize4NxWBjrLl-1" value="Send email from existing work item" style="ellipse;whiteSpace=wrap;html=1;" parent="1" vertex="1">
          <mxGeometry x="70" y="-510" width="206" height="80" as="geometry" />
        </mxCell>
        <mxCell id="4jdrBC15Ize4NxWBjrLl-2" value="Send email from work item list" style="ellipse;whiteSpace=wrap;html=1;" parent="1" vertex="1">
          <mxGeometry x="520" y="-500" width="206" height="80" as="geometry" />
        </mxCell>
        <mxCell id="4-Z4f17bZcAGOfIwcgOS-1" value="Manage time logs" style="ellipse;whiteSpace=wrap;html=1;" parent="1" vertex="1">
          <mxGeometry x="300" y="-950" width="195" height="80" as="geometry" />
        </mxCell>
        <mxCell id="4-Z4f17bZcAGOfIwcgOS-6" value="Extends" style="endArrow=block;endSize=16;endFill=0;html=1;rounded=0;entryX=0;entryY=0.5;entryDx=0;entryDy=0;" parent="1" source="1eYsrxTv3W_-VM1bbza0-2" target="4-Z4f17bZcAGOfIwcgOS-1" edge="1">
          <mxGeometry width="160" relative="1" as="geometry">
            <mxPoint x="65" y="-790" as="sourcePoint" />
            <mxPoint x="225" y="-790" as="targetPoint" />
          </mxGeometry>
        </mxCell>
        <mxCell id="4-Z4f17bZcAGOfIwcgOS-7" value="Extends" style="endArrow=block;endSize=16;endFill=0;html=1;rounded=0;exitX=0.258;exitY=0.913;exitDx=0;exitDy=0;exitPerimeter=0;entryX=0.985;entryY=0.413;entryDx=0;entryDy=0;entryPerimeter=0;" parent="1" source="1eYsrxTv3W_-VM1bbza0-4" target="4-Z4f17bZcAGOfIwcgOS-1" edge="1">
          <mxGeometry width="160" relative="1" as="geometry">
            <mxPoint x="620" y="-940" as="sourcePoint" />
            <mxPoint x="630" y="-791" as="targetPoint" />
          </mxGeometry>
        </mxCell>
        <mxCell id="4-Z4f17bZcAGOfIwcgOS-8" value="Extends" style="endArrow=block;endSize=16;endFill=0;html=1;rounded=0;entryX=0.344;entryY=0.963;entryDx=0;entryDy=0;exitX=0.419;exitY=0.025;exitDx=0;exitDy=0;exitPerimeter=0;entryPerimeter=0;" parent="1" source="1eYsrxTv3W_-VM1bbza0-3" target="4-Z4f17bZcAGOfIwcgOS-1" edge="1">
          <mxGeometry width="160" relative="1" as="geometry">
            <mxPoint x="250" y="-810" as="sourcePoint" />
            <mxPoint x="350" y="-880" as="targetPoint" />
          </mxGeometry>
        </mxCell>
        <mxCell id="4-Z4f17bZcAGOfIwcgOS-9" value="Extends" style="endArrow=block;endSize=16;endFill=0;html=1;rounded=0;exitX=0.103;exitY=0.125;exitDx=0;exitDy=0;exitPerimeter=0;" parent="1" source="1eYsrxTv3W_-VM1bbza0-1" target="4-Z4f17bZcAGOfIwcgOS-1" edge="1">
          <mxGeometry width="160" relative="1" as="geometry">
            <mxPoint x="321" y="-758" as="sourcePoint" />
            <mxPoint x="377" y="-863" as="targetPoint" />
          </mxGeometry>
        </mxCell>
        <mxCell id="vd6AiU4IwBAZcLss80Cb-1" value="Send email from work item&#39;s time log" style="ellipse;whiteSpace=wrap;html=1;" parent="1" vertex="1">
          <mxGeometry x="316" y="-340" width="195" height="80" as="geometry" />
        </mxCell>
        <mxCell id="vd6AiU4IwBAZcLss80Cb-2" value="Extends" style="endArrow=block;endSize=16;endFill=0;html=1;rounded=0;exitX=1;exitY=1;exitDx=0;exitDy=0;entryX=0.103;entryY=0.125;entryDx=0;entryDy=0;entryPerimeter=0;" parent="1" source="4jdrBC15Ize4NxWBjrLl-1" target="vd6AiU4IwBAZcLss80Cb-1" edge="1">
          <mxGeometry width="160" relative="1" as="geometry">
            <mxPoint x="171" y="-768" as="sourcePoint" />
            <mxPoint x="377" y="-863" as="targetPoint" />
          </mxGeometry>
        </mxCell>
        <mxCell id="vd6AiU4IwBAZcLss80Cb-3" value="Extends" style="endArrow=block;endSize=16;endFill=0;html=1;rounded=0;exitX=0.097;exitY=0.888;exitDx=0;exitDy=0;exitPerimeter=0;entryX=1;entryY=0;entryDx=0;entryDy=0;" parent="1" source="4jdrBC15Ize4NxWBjrLl-2" target="vd6AiU4IwBAZcLss80Cb-1" edge="1">
          <mxGeometry width="160" relative="1" as="geometry">
            <mxPoint x="256" y="-432" as="sourcePoint" />
            <mxPoint x="360" y="-355" as="targetPoint" />
          </mxGeometry>
        </mxCell>
      </root>
    </mxGraphModel>
  </diagram>
  <diagram id="JGESqJ7sLEq_67mfiIQ6" name="Manage audit log use cases">
    <mxGraphModel dx="1434" dy="738" grid="0" gridSize="10" guides="1" tooltips="1" connect="1" arrows="1" fold="1" page="1" pageScale="1" pageWidth="827" pageHeight="1169" math="0" shadow="0">
      <root>
        <mxCell id="0" />
        <mxCell id="1" parent="0" />
        <mxCell id="WqYa_6kMdvVs4EpgCjgJ-1" value="Manage audit log" style="ellipse;whiteSpace=wrap;html=1;" parent="1" vertex="1">
          <mxGeometry x="220" y="230" width="184.75" height="80" as="geometry" />
        </mxCell>
        <mxCell id="C3ACk_iOB3kTldF8Hcof-1" value="consulter audit log par organisation" style="ellipse;whiteSpace=wrap;html=1;" parent="1" vertex="1">
          <mxGeometry x="564.25" y="180" width="184.75" height="80" as="geometry" />
        </mxCell>
        <mxCell id="C3ACk_iOB3kTldF8Hcof-2" value="export audit sous format csv" style="ellipse;whiteSpace=wrap;html=1;" parent="1" vertex="1">
          <mxGeometry x="560" y="297" width="184.75" height="80" as="geometry" />
        </mxCell>
        <mxCell id="C3ACk_iOB3kTldF8Hcof-4" value="Extends" style="endArrow=block;endSize=16;endFill=0;html=1;rounded=0;exitX=0;exitY=0.5;exitDx=0;exitDy=0;entryX=0.958;entryY=0.763;entryDx=0;entryDy=0;entryPerimeter=0;" parent="1" source="C3ACk_iOB3kTldF8Hcof-2" target="WqYa_6kMdvVs4EpgCjgJ-1" edge="1">
          <mxGeometry width="160" relative="1" as="geometry">
            <mxPoint x="406" y="263" as="sourcePoint" />
            <mxPoint x="570" y="230" as="targetPoint" />
          </mxGeometry>
        </mxCell>
        <mxCell id="C3ACk_iOB3kTldF8Hcof-5" value="Extends" style="endArrow=block;endSize=16;endFill=0;html=1;rounded=0;entryX=0.996;entryY=0.388;entryDx=0;entryDy=0;entryPerimeter=0;exitX=0;exitY=0.5;exitDx=0;exitDy=0;" parent="1" source="C3ACk_iOB3kTldF8Hcof-1" target="WqYa_6kMdvVs4EpgCjgJ-1" edge="1">
          <mxGeometry width="160" relative="1" as="geometry">
            <mxPoint x="560" y="220" as="sourcePoint" />
            <mxPoint x="400" y="310" as="targetPoint" />
          </mxGeometry>
        </mxCell>
      </root>
    </mxGraphModel>
  </diagram>
  <diagram id="wbaKXo2UiiEzNTrN3mWX" name="Consulter dashboard use cases">
    <mxGraphModel dx="1434" dy="738" grid="0" gridSize="10" guides="1" tooltips="1" connect="1" arrows="1" fold="1" page="1" pageScale="1" pageWidth="827" pageHeight="1169" math="0" shadow="0">
      <root>
        <mxCell id="0" />
        <mxCell id="1" parent="0" />
        <mxCell id="CcDZn0BC9iC_pLv9BS-V-1" value="Consulter dashboard" style="ellipse;whiteSpace=wrap;html=1;" vertex="1" parent="1">
          <mxGeometry x="293" y="326" width="184.75" height="80" as="geometry" />
        </mxCell>
      </root>
    </mxGraphModel>
  </diagram>
</mxfile>
